<!-- 
    SVG by https://github.com/staticintlucas/readme-stats
-->
<svg width="822" height="215" xmlns="http://www.w3.org/2000/svg">
    <style>
        :root {
            --bg-color: #f4f6f8;
            --border-color: #d0d7de;
            --text-color: #24292f;
            --grey-text-color: #57606a;

            --font-family: -apple-system, BlinkMacSystemFont, "Segoe UI", Helvetica, Arial, sans-serif, "Apple Color Emoji", "Segoe UI Emoji";
            --font-size: 14px;
            --line-height: 1.5;
            --bold-font-size: 18px;
            --bold-font-weight: 600;
        }
        @media (prefers-color-scheme: dark) {
            :root {
                --bg-color: #171b22;
                --border-color: #30363d;
                --text-color: #c9d1d9;
                --grey-text-color: #8b949e;
            }
        }
        @media (prefers-color-scheme: light) {
            :root {
                --bg-color: #f4f6f8;
                --border-color: #d0d7de;
                --text-color: #24292f;
                --grey-text-color: #57606a;
            }
        }
        rect#bg, line#sep {
            fill: var(--bg-color);
            stroke: var(--border-color);
        }
        text, path {
            fill: var(--text-color);
        }
        text {
            text-rendering: optimizeLegibility;
            font: var(--font-size) var(--font-family);
        }
        text.heading {
            font-weight: var(--bold-font-weight);
            font-size: var(--bold-font-size);
        }
        line.bar {
            stroke-width: 8;
            stroke-linecap: round;
        }
    </style>
    <rect id="bg" x="0.5" y="0.5" width="821" height="214" stroke-width="1" rx="6" ry="6" />
    <line id="sep" x1="391.5" y1="0" x2="391.5" y2="214" stroke-width="1" />

    <g transform="translate(24, 20)">
        <text class="heading" x="0" y="18">GitHub Stats</text>
    </g>
    <g transform="translate(24, 57)">
        <text x="0" y="12.5">Commits</text>
        <text x="343" y="12.5" text-anchor="end">95</text>
    </g>
    <g transform="translate(24, 81)">
        <text x="0" y="12.5">Additions</text>
        <text x="343" y="12.5" text-anchor="end">37408</text>
    </g>
    <g transform="translate(24, 105)">
        <text x="0" y="12.5">Deletions</text>
        <text x="343" y="12.5" text-anchor="end">87171</text>
    </g>
    <g transform="translate(24, 129)">
        <text x="0" y="12.5">Repos</text>
        <text x="343" y="12.5" text-anchor="end">7</text>
    </g>

    <g transform="translate(415, 20)">
        <text class="heading" x="0" y="18">Most Used Languages (Last 30 Days)</text>
    </g>
    
   
    <g transform="translate(415, 57)">
        <text x="0" y="12.5">MarkDown</text>
        <line class="bar" x1="87" y1="8" x2="107.2" y2="8" stroke="#005F73" />
        <text x="382" y="12.5" text-anchor="end">4.3%</text>
    </g>
    
    <g transform="translate(415, 81)">
        <text x="0" y="12.5">TypeScript</text>
        <line class="bar" x1="87" y1="8" x2="317.0" y2="8" stroke="#94D2BD" />
        <text x="382" y="12.5" text-anchor="end">67.9%</text>
    </g>
    
    <g transform="translate(415, 105)">
        <text x="0" y="12.5">JSON</text>
        <line class="bar" x1="87" y1="8" x2="154.3" y2="8" stroke="#E9D8A6" />
        <text x="382" y="12.5" text-anchor="end">18.6%</text>
    </g>
    
    <g transform="translate(415, 129)">
        <text x="0" y="12.5">Config</text>
        <line class="bar" x1="87" y1="8" x2="105.4" y2="8" stroke="#CA6702" />
        <text x="382" y="12.5" text-anchor="end">3.8%</text>
    </g>
    
    <g transform="translate(415, 153)">
        <text x="0" y="12.5">Ignore</text>
        <line class="bar" x1="87" y1="8" x2="101.9" y2="8" stroke="#AE2012" />
        <text x="382" y="12.5" text-anchor="end">2.7%</text>
    </g>
    
    <g transform="translate(415, 177)">
        <text x="0" y="12.5">JavaScript</text>
        <line class="bar" x1="87" y1="8" x2="101.9" y2="8" stroke="#9B2226" />
        <text x="382" y="12.5" text-anchor="end">2.7%</text>
    </g>
    
    
</svg>
